PathFileType	4	(X/Y/Z)	two_link_01.trc																
DataRate	CameraRate	NumFrames	NumMarkers	Units	OrigDataRate	OrigDataStartFrame	OrigNumFrames												
60	60	45	6	m	60	632	2526												
Frame#	Time	Link2_Marker_1			Link2_Marker_2			Link2_Marker_3			Link1_Marker_1			Link1_Marker_2			Link1_Marker_3		
		X1	Y1	Z1	X2	Y2	Z2	X3	Y3	Z3	X4	Y4	Z4	X5	Y5	Z5	X6	Y6	Z6
																			
632	0.109	0.12448507	0.52420007	0	0.12448507	0.52420007	0.1	0.02616552	0.54245568	0	0.07336935	0.24890535	0	0.07336935	0.24890535	0.1	0	0	84.63630907
633	0.10900877	0.12450857	0.52419668	0	0.12450857	0.52419668	0.1	0.02618989	0.54245691	0	0.07337992	0.24890436	0	0.07337992	0.24890436	0.1	0	0	84.63387629
634	0.10901154	0.12451598	0.5241956	0	0.12451598	0.5241956	0.1	0.02619757	0.5424573	0	0.07338323	0.24890405	0	0.07338323	0.24890405	0.1	0	0	84.63311311
635	0.10901534	0.12452613	0.52419413	0	0.12452613	0.52419413	0.1	0.02620809	0.54245784	0	0.07338775	0.24890362	0	0.07338775	0.24890362	0.1	0	0	84.63207377
636	0.10903433	0.12457655	0.52418679	0	0.12457655	0.52418679	0.1	0.02626039	0.54246062	0	0.07340984	0.24890155	0	0.07340984	0.24890155	0.1	0	0	84.62698819
637	0.10912927	0.12482144	0.52415025	0	0.12482144	0.52415025	0.1	0.02651502	0.54247639	0	0.07350825	0.24889227	0	0.07350825	0.24889227	0.1	0	0	84.60433516
638	0.10960396	0.12586587	0.52397164	0	0.12586587	0.52397164	0.1	0.02761678	0.5426027	0	0.07369892	0.24887419	0	0.07369892	0.24887419	0.1	0	0	84.56044029
639	0.11	0.12650742	0.5238272	0	0.12650742	0.5238272	0.1	0.02831754	0.54276782	0	0.07347371	0.24889553	0	0.07347371	0.24889553	0.1	0	0	84.6122861
640	0.11001053	0.12652173	0.5238234	0	0.12652173	0.5238234	0.1	0.02833357	0.5427729	0	0.07346311	0.24889653	0	0.07346311	0.24889653	0.1	0	0	84.61472518
641	0.11002386	0.12654001	0.52381857	0	0.12654001	0.52381857	0.1	0.02835401	0.54277929	0	0.07345	0.24889777	0	0.07345	0.24889777	0.1	0	0	84.61774352
642	0.11009052	0.12663481	0.52379431	0	0.12663481	0.52379431	0.1	0.02845948	0.54281021	0	0.07339027	0.24890339	0	0.07339027	0.24890339	0.1	0	0	84.63149336
643	0.1104238	0.12719392	0.52366975	0	0.12719392	0.52366975	0.1	0.02906819	0.54293998	0	0.07323728	0.24891772	0	0.07323728	0.24891772	0.1	0	0	84.66671021
644	0.111	0.12849565	0.5234438	0	0.12849565	0.5234438	0.1	0.03044028	0.54306888	0	0.07354545	0.24888875	0	0.07354545	0.24888875	0.1	0	0	84.59577116
645	0.1110098	0.12852138	0.52343985	0	0.12852138	0.52343985	0.1	0.03046703	0.54307005	0	0.07355682	0.24888768	0	0.07355682	0.24888768	0.1	0	0	84.59315217
646	0.11101981	0.12854756	0.52343582	0	0.12854756	0.52343582	0.1	0.03049426	0.54307128	0	0.07356827	0.24888659	0	0.07356827	0.24888659	0.1	0	0	84.59051771
647	0.11102982	0.1285736	0.52343179	0	0.1285736	0.52343179	0.1	0.03052137	0.54307254	0	0.0735795	0.24888553	0	0.0735795	0.24888553	0.1	0	0	84.5879331
648	0.11107986	0.12870193	0.52341165	0	0.12870193	0.52341165	0.1	0.03065509	0.54307934	0	0.07363242	0.24888051	0	0.07363242	0.24888051	0.1	0	0	84.5757503
649	0.11133006	0.1292957	0.5233116	0	0.1292957	0.5233116	0.1	0.03127834	0.54312563	0	0.0738164	0.24886297	0	0.0738164	0.24886297	0.1	0	0	84.53339267
650	0.112	0.13049272	0.52304807	0	0.13049272	0.52304807	0.1	0.03257522	0.54334986	0	0.07364771	0.24887906	0	0.07364771	0.24887906	0.1	0	0	84.5722289
651	0.11201057	0.13050712	0.52304393	0	0.13050712	0.52304393	0.1	0.03259144	0.54335451	0	0.07363749	0.24888003	0	0.07363749	0.24888003	0.1	0	0	84.57458146
652	0.11202372	0.13052518	0.52303879	0	0.13052518	0.52303879	0.1	0.03261176	0.54336025	0	0.07362507	0.24888121	0	0.07362507	0.24888121	0.1	0	0	84.57744167
653	0.11208944	0.13061863	0.52301296	0	0.13061863	0.52301296	0.1	0.03271635	0.54338804	0	0.0735684	0.24888658	0	0.0735684	0.24888658	0.1	0	0	84.59048849
654	0.11241805	0.13116483	0.52288163	0	0.13116483	0.52288163	0.1	0.03331442	0.54350436	0	0.07342118	0.24890048	0	0.07342118	0.24890048	0.1	0	0	84.62437894
655	0.113	0.13245532	0.52264212	0	0.13245532	0.52264212	0.1	0.03468044	0.54362002	0	0.07371718	0.24887245	0	0.07371718	0.24887245	0.1	0	0	84.55623535
656	0.11300729	0.13247406	0.52263907	0	0.13247406	0.52263907	0.1	0.03469999	0.54362076	0	0.07372533	0.24887167	0	0.07372533	0.24887167	0.1	0	0	84.55435949
657	0.11301078	0.13248303	0.52263761	0	0.13248303	0.52263761	0.1	0.03470935	0.54362111	0	0.07372921	0.2488713	0	0.07372921	0.2488713	0.1	0	0	84.55346567
658	0.11301427	0.13249198	0.52263614	0	0.13249198	0.52263614	0.1	0.03471869	0.54362147	0	0.07373307	0.24887093	0	0.07373307	0.24887093	0.1	0	0	84.55257816
659	0.11303173	0.13253652	0.52262884	0	0.13253652	0.52262884	0.1	0.03476519	0.54362332	0	0.07375198	0.24886913	0	0.07375198	0.24886913	0.1	0	0	84.54822483
660	0.11311903	0.13275367	0.52259231	0	0.13275367	0.52259231	0.1	0.03499248	0.54363395	0	0.07383709	0.24886099	0	0.07383709	0.24886099	0.1	0	0	84.5286291
661	0.11355554	0.13370058	0.52241003	0	0.13370058	0.52241003	0.1	0.03599797	0.54372199	0	0.07402711	0.24884272	0	0.07402711	0.24884272	0.1	0	0	84.48487919
662	0.114	0.1344268	0.52222434	0	0.1344268	0.52222434	0.1	0.03679771	0.5438706	0	0.07381728	0.24886289	0	0.07381728	0.24886289	0.1	0	0	84.53319156
663	0.11401061	0.13444129	0.52221989	0	0.13444129	0.52221989	0.1	0.03681412	0.54387483	0	0.07380745	0.24886383	0	0.07380745	0.24886383	0.1	0	0	84.5354536
664	0.11402359	0.13445917	0.52221444	0	0.13445917	0.52221444	0.1	0.03683436	0.54387997	0	0.07379569	0.24886495	0	0.07379569	0.24886495	0.1	0	0	84.5381614
665	0.11408852	0.13455153	0.52218711	0	0.13455153	0.52218711	0.1	0.0369383	0.54390481	0	0.07374198	0.24887008	0	0.07374198	0.24887008	0.1	0	0	84.5505264
666	0.11441315	0.13508652	0.52204923	0	0.13508652	0.52204923	0.1	0.03752733	0.5440084	0	0.07360086	0.24888351	0	0.07360086	0.24888351	0.1	0	0	84.58301597
667	0.115	0.1363637	0.52179666	0	0.1363637	0.52179666	0.1	0.03888504	0.5441106	0	0.07388467	0.24885643	0	0.07388467	0.24885643	0.1	0	0	84.51767529
668	0.11500718	0.13638175	0.52179355	0	0.13638175	0.52179355	0.1	0.03890395	0.54411119	0	0.07389237	0.24885569	0	0.07389237	0.24885569	0.1	0	0	84.51590199
669	0.11501107	0.13639154	0.52179186	0	0.13639154	0.52179186	0.1	0.0389142	0.54411151	0	0.07389653	0.24885529	0	0.07389653	0.24885529	0.1	0	0	84.51494515
670	0.11501497	0.13640131	0.52179018	0	0.13640131	0.52179018	0.1	0.03892442	0.54411184	0	0.07390065	0.2488549	0	0.07390065	0.2488549	0.1	0	0	84.51399576
671	0.11503445	0.13644989	0.52178173	0	0.13644989	0.52178173	0.1	0.03897532	0.54411354	0	0.07392083	0.24885296	0	0.07392083	0.24885296	0.1	0	0	84.50935022
672	0.11513183	0.13668621	0.52173945	0	0.13668621	0.52173945	0.1	0.03922367	0.54412364	0	0.07401048	0.24884432	0	0.07401048	0.24884432	0.1	0	0	84.48870827
673	0.11561876	0.13770378	0.52152661	0	0.13770378	0.52152661	0.1	0.04031145	0.54421438	0	0.07417802	0.2488281	0	0.07417802	0.2488281	0.1	0	0	84.45013044
674	0.116	0.13830944	0.52135768	0	0.13830944	0.52135768	0.1	0.0409842	0.54433152	0	0.07398269	0.248847	0	0.07398269	0.248847	0.1	0	0	84.49510706
675	0.11601064	0.13832402	0.52135292	0	0.13832402	0.52135292	0.1	0.0410008	0.54433533	0	0.07397327	0.24884791	0	0.07397327	0.24884791	0.1	0	0	84.49727513
676	0.11602349	0.13834177	0.52134717	0	0.13834177	0.52134717	0.1	0.04102099	0.54433989	0	0.07396215	0.24884898	0	0.07396215	0.24884898	0.1	0	0	84.49983568
